<svg width="709" height="261" viewBox="0 0 709 261" fill="none" xmlns="http://www.w3.org/2000/svg">
<g filter="url(#filter0_d_153_645)">
<g clip-path="url(#clip0_153_645)">
<path fill-rule="evenodd" clip-rule="evenodd" d="M4 54.9991V110H45.3835H86.7671V89.1929V68.3858L80.0883 61.6925L73.4078 54.9991L80.0883 48.3076L86.7671 41.6143V20.8071V0H45.3835H4V54.9991ZM99.8898 54.9991V110H141.526H183.162V96.1245V82.2473H155.656H128.151V41.1236V0H114.02H99.8898V54.9991ZM196.283 54.9991V110H237.666H279.05V54.9991V0H265.172H251.294V41.1236V82.2473H237.666H224.04V41.1236V0H210.162H196.283V54.9991ZM292.677 54.9991V110H334.061H375.444V96.1245V82.2473H347.939H320.435V75.6889V69.1287H341.127H361.818V54.9991V40.8713H341.127H320.435V34.3112V27.7528H347.939H375.444V13.8755V0H334.061H292.677V54.9991ZM389.07 54.9991V110H430.455H471.839V89.1929V68.3858L465.158 61.6925L458.478 54.9991L465.158 48.3076L471.839 41.6143V20.8071V0H430.455H389.07V54.9991ZM484.96 54.9991V110H499.09H513.222V54.9991V0H499.09H484.96V54.9991ZM526.343 54.9991V110H540.223H554.101V89.5644V69.1287H567.727H581.354V89.5644V110H595.232H609.11V89.1719V68.342L605.83 65.0899L602.549 61.8396L605.83 58.5333L609.11 55.2269V27.6143V0H567.727H526.343V54.9991ZM622.738 54.9991V110H657.441H692.145L698.572 103.559L705 97.1198V54.9851V12.8522L698.558 6.42699L692.117 0H657.427H622.738V54.9991ZM59.0092 34.3112V40.8713H45.3835H31.7578V34.3112V27.7528H45.3835H59.0092V34.3112ZM444.081 34.3112V40.8713H430.455H416.828V34.3112V27.7528H430.455H444.081V34.3112ZM581.354 34.3112V40.8713H567.727H554.101V34.3112V27.7528H567.727H581.354V34.3112ZM677.747 54.9991V82.2473H664.121H650.494V54.9991V27.7528H664.121H677.747V54.9991ZM59.0092 75.6889V82.2473H45.3835H31.7578V75.6889V69.1287H45.3835H59.0092V75.6889ZM444.081 75.6889V82.2473H430.455H416.828V75.6889V69.1287H430.455H444.081V75.6889Z" fill="white"/>
</g>
<g clip-path="url(#clip1_153_645)">
<path fill-rule="evenodd" clip-rule="evenodd" d="M154 176.684V211.367H181.595H209.19V217.949V224.532H181.595H154V238.456V252.38H195.519H237.038V217.696V183.013H209.443H181.848V176.43V169.848H209.443H237.038V155.924V142H195.519H154V176.684ZM250.203 197.19V252.38H305.646H361.089V197.19V142H347.165H333.241V183.266V224.532H326.405H319.57V196.937V169.342H305.646H291.722V196.937V224.532H285.139H278.557V183.266V142H264.38H250.203V197.19ZM374.759 197.19V252.38H388.684H402.608V231.873V211.367H416.278H429.949V231.873V252.38H443.873H457.797V197.19V142H416.278H374.759V197.19ZM470.962 197.19V252.38H485.139H499.316V231.873V211.367H526.658H554V176.684V142H512.481H470.962V197.19ZM429.949 176.43V183.013H416.278H402.608V176.43V169.848H416.278H429.949V176.43ZM526.152 176.43V183.013H512.734H499.316V176.43V169.848H512.734H526.152V176.43Z" fill="white"/>
</g>
</g>
<defs>
<filter id="filter0_d_153_645" x="0" y="0" width="709" height="260.38" filterUnits="userSpaceOnUse" color-interpolation-filters="sRGB">
<feFlood flood-opacity="0" result="BackgroundImageFix"/>
<feColorMatrix in="SourceAlpha" type="matrix" values="0 0 0 0 0 0 0 0 0 0 0 0 0 0 0 0 0 0 127 0" result="hardAlpha"/>
<feOffset dy="4"/>
<feGaussianBlur stdDeviation="2"/>
<feComposite in2="hardAlpha" operator="out"/>
<feColorMatrix type="matrix" values="0 0 0 0 0 0 0 0 0 0 0 0 0 0 0 0 0 0 0.25 0"/>
<feBlend mode="normal" in2="BackgroundImageFix" result="effect1_dropShadow_153_645"/>
<feBlend mode="normal" in="SourceGraphic" in2="effect1_dropShadow_153_645" result="shape"/>
</filter>
<clipPath id="clip0_153_645">
<rect width="701" height="110" fill="white" transform="translate(4)"/>
</clipPath>
<clipPath id="clip1_153_645">
<rect width="400" height="110.38" fill="white" transform="translate(154 142)"/>
</clipPath>
</defs>
</svg>
